# xmcd
#
# Track frame offsets:
#	182
#	20282
#	34907
#	47732
#	61757
#	82757
#	97457
#	117632
#	133070
#	145907
#	162632
#	178590
#
# Disc length: 2560 seconds
#
# Revision: 0
# Processed by: cddbd v1.5.2PL0 Copyright (c) Steve Scherf et al.
# Submitted via: audiograbber 1.83.01
#
DISCID=a909fe0c
DTITLE=Disree-Ilona Crawford and Tom Swatzell - Many Dreams
DYEAR=1997
DGENRE=Country
TTITLE0=Many Dreams
TTITLE1=Stolen Moments
TTITLE2=Cry Steel Guitar
TTITLE3=Tonight I'm Blue For Oldb Hawaii
TTITLE4=Blue Eyes Crayin'  In The Rain
TTITLE5=It Wasen't God Who Made Honky Tonk Angels
TTITLE6=Born To Lose
TTITLE7=Waltz Across Texas
TTITLE8=Broken Wings
TTITLE9=Red Sails In The Sunset
TTITLE10=Send Me The Pillow
TTITLE11=I was Born Just Wonderful (I Was Born To Love)
EXTD=
EXTT0=
EXTT1=
EXTT2=
EXTT3=
EXTT4=
EXTT5=
EXTT6=
EXTT7=
EXTT8=
EXTT9=
EXTT10=
EXTT11=
PLAYORDER=
